<svg width="512" height="512" viewBox="0 0 512 512" xmlns="http://www.w3.org/2000/svg">
  <defs>
    <linearGradient id="badge" x1="70" y1="40" x2="440" y2="470">
      <stop stop-color="#07111d"/>
      <stop offset="1" stop-color="#17324a"/>
    </linearGradient>
    <filter id="glow" x="-30%" y="-30%" width="160%" height="160%">
      <feGaussianBlur stdDeviation="10" result="blur"/>
      <feMerge>
        <feMergeNode in="blur"/>
        <feMergeNode in="SourceGraphic"/>
      </feMerge>
    </filter>
  </defs>
  <rect width="512" height="512" rx="112" fill="url(#badge)"/>
  <rect x="30" y="30" width="452" height="452" rx="92" fill="none" stroke="#5af0c2" stroke-width="8" stroke-opacity=".35"/>
  <path d="M86 336C142 152 312 102 430 190" fill="none" stroke="#5af0c2" stroke-width="34" stroke-linecap="round" opacity=".65" filter="url(#glow)"/>
  <path d="M98 366C174 262 312 250 430 318" fill="none" stroke="#ffcf6b" stroke-width="20" stroke-linecap="round" opacity=".78"/>
  <g transform="translate(128 148) rotate(-10)" filter="url(#glow)">
    <path d="M18 88 78 36h138l68 54v78l-68 54H78l-60-52Z" fill="#07111d" stroke="#5af0c2" stroke-width="12"/>
    <path d="M94 68h100l48 38v48H56v-48Z" fill="#5af0c2" fill-opacity=".25" stroke="#7dd3fc" stroke-width="5"/>
    <circle cx="78" cy="236" r="31" fill="#05070d" stroke="#ffcf6b" stroke-width="11"/>
    <circle cx="222" cy="236" r="31" fill="#05070d" stroke="#ffcf6b" stroke-width="11"/>
  </g>
  <text x="256" y="438" text-anchor="middle" fill="#ffffff" font-family="Trebuchet MS, Segoe UI, sans-serif" font-size="54" font-weight="900" letter-spacing="-2">CRASH</text>
</svg>
