<svg width="1280" height="640" viewBox="0 0 1280 640" fill="none" xmlns="http://www.w3.org/2000/svg">
  <defs>
    <radialGradient id="bgGlow" cx="0.6" cy="0.6" r="0.7">
      <stop offset="0%" stop-color="#152036"/>
      <stop offset="100%" stop-color="#070A12"/>
    </radialGradient>
    
    <linearGradient id="trailCyan" x1="0" y1="0" x2="1" y2="0">
      <stop offset="0%" stop-color="#5AF0C1" stop-opacity="0"/>
      <stop offset="100%" stop-color="#5AF0C1" stop-opacity="0.6"/>
    </linearGradient>
    <linearGradient id="trailPink" x1="0" y1="0" x2="1" y2="0">
      <stop offset="0%" stop-color="#FF2A6D" stop-opacity="0"/>
      <stop offset="100%" stop-color="#FF2A6D" stop-opacity="0.6"/>
    </linearGradient>
    <linearGradient id="trailYellow" x1="0" y1="0" x2="1" y2="0">
      <stop offset="0%" stop-color="#FFCF6B" stop-opacity="0"/>
      <stop offset="100%" stop-color="#FFCF6B" stop-opacity="0.6"/>
    </linearGradient>

    <linearGradient id="textGrad" x1="0" y1="0" x2="1" y2="0">
      <stop offset="0%" stop-color="#FFFFFF"/>
      <stop offset="100%" stop-color="#DDF2FF"/>
    </linearGradient>

    <filter id="glow" x="-20%" y="-20%" width="140%" height="140%">
      <feGaussianBlur stdDeviation="6" result="blur"/>
      <feMerge>
        <feMergeNode in="blur"/>
        <feMergeNode in="SourceGraphic"/>
      </feMerge>
    </filter>
    <filter id="glowSubtle" x="-20%" y="-20%" width="140%" height="140%">
      <feGaussianBlur stdDeviation="3" result="blur"/>
      <feMerge>
        <feMergeNode in="blur"/>
        <feMergeNode in="SourceGraphic"/>
      </feMerge>
    </filter>

    <pattern id="dotGrid" width="32" height="32" patternUnits="userSpaceOnUse">
      <circle cx="16" cy="16" r="1.5" fill="#ffffff" opacity="0.04"/>
    </pattern>
  </defs>

  <rect width="1280" height="640" fill="url(#bgGlow)"/>
  <rect width="1280" height="640" fill="url(#dotGrid)"/>

  <g opacity="0.8">
    <path d="M 500 800 C 650 350, 1050 200, 1400 450" stroke="#1C283D" stroke-width="180" fill="none" stroke-linecap="round"/>
    <path d="M 500 800 C 650 350, 1050 200, 1400 450" stroke="#0B101E" stroke-width="174" fill="none" stroke-linecap="round"/>
    <path d="M 500 800 C 650 350, 1050 200, 1400 450" stroke="#131B2C" stroke-width="150" fill="none" stroke-linecap="round"/>
    <path d="M 500 800 C 650 350, 1050 200, 1400 450" stroke="#5AF0C1" stroke-width="4" fill="none" stroke-dasharray="24 24" opacity="0.4" filter="url(#glowSubtle)"/>
  </g>

  <g transform="translate(1000, 310) rotate(15)">
    <polygon points="0,-16 14,-8 14,8 0,16 -14,8 -14,-8" fill="rgba(255, 207, 107, 0.15)" stroke="#FFCF6B" stroke-width="2" filter="url(#glowSubtle)"/>
    <polygon points="0,-8 7,-4 7,4 0,8 -7,4 -7,-4" fill="#FFCF6B"/>
  </g>
  <g transform="translate(750, 290) rotate(45)" opacity="0.7">
    <polygon points="0,-16 14,-8 14,8 0,16 -14,8 -14,-8" fill="rgba(255, 207, 107, 0.15)" stroke="#FFCF6B" stroke-width="2" filter="url(#glowSubtle)"/>
    <polygon points="0,-8 7,-4 7,4 0,8 -7,4 -7,-4" fill="#FFCF6B"/>
  </g>

  <g transform="translate(720, 520) rotate(-40)">
    <path d="M 15 15 L -100 15 L -100 20 L 15 20 Z" fill="url(#trailYellow)"/>
    <path d="M 15 45 L -100 45 L -100 40 L 15 40 Z" fill="url(#trailYellow)"/>
    <rect x="20" y="0" width="24" height="8" rx="2" fill="#070A12" stroke="#FFCF6B" stroke-width="2"/>
    <rect x="85" y="8" width="24" height="8" rx="2" fill="#070A12" stroke="#FFCF6B" stroke-width="2"/>
    <rect x="20" y="52" width="24" height="8" rx="2" fill="#070A12" stroke="#FFCF6B" stroke-width="2"/>
    <rect x="85" y="44" width="24" height="8" rx="2" fill="#070A12" stroke="#FFCF6B" stroke-width="2"/>
    <polygon points="10,10 40,5 110,15 125,25 125,35 110,45 40,55 10,50" fill="rgba(255, 207, 107, 0.1)" stroke="#FFCF6B" stroke-width="2"/>
    <polygon points="45,18 80,22 80,38 45,42" fill="rgba(255, 207, 107, 0.25)" stroke="#FFCF6B" stroke-width="1.5"/>
  </g>

  <g transform="translate(860, 420) rotate(-25)">
    <path d="M 15 15 L -140 15 L -140 20 L 15 20 Z" fill="url(#trailPink)"/>
    <path d="M 15 45 L -140 45 L -140 40 L 15 40 Z" fill="url(#trailPink)"/>
    <rect x="20" y="0" width="24" height="8" rx="2" fill="#070A12" stroke="#FF2A6D" stroke-width="2"/>
    <rect x="85" y="8" width="24" height="8" rx="2" fill="#070A12" stroke="#FF2A6D" stroke-width="2"/>
    <rect x="20" y="52" width="24" height="8" rx="2" fill="#070A12" stroke="#FF2A6D" stroke-width="2"/>
    <rect x="85" y="44" width="24" height="8" rx="2" fill="#070A12" stroke="#FF2A6D" stroke-width="2"/>
    <polygon points="10,10 40,5 110,15 125,25 125,35 110,45 40,55 10,50" fill="rgba(255, 42, 109, 0.1)" stroke="#FF2A6D" stroke-width="2" filter="url(#glowSubtle)"/>
    <polygon points="45,18 80,22 80,38 45,42" fill="rgba(255, 42, 109, 0.25)" stroke="#FF2A6D" stroke-width="1.5"/>
  </g>

  <g transform="translate(1020, 260) rotate(5)">
    <path d="M 15 15 L -180 15 L -180 20 L 15 20 Z" fill="url(#trailCyan)"/>
    <path d="M 15 45 L -180 45 L -180 40 L 15 40 Z" fill="url(#trailCyan)"/>
    <rect x="20" y="0" width="24" height="8" rx="2" fill="#070A12" stroke="#5AF0C1" stroke-width="2"/>
    <rect x="85" y="8" width="24" height="8" rx="2" fill="#070A12" stroke="#5AF0C1" stroke-width="2"/>
    <rect x="20" y="52" width="24" height="8" rx="2" fill="#070A12" stroke="#5AF0C1" stroke-width="2"/>
    <rect x="85" y="44" width="24" height="8" rx="2" fill="#070A12" stroke="#5AF0C1" stroke-width="2"/>
    <polygon points="10,10 40,5 110,15 125,25 125,35 110,45 40,55 10,50" fill="rgba(90, 240, 193, 0.1)" stroke="#5AF0C1" stroke-width="2.5" filter="url(#glowSubtle)"/>
    <polygon points="45,18 80,22 80,38 45,42" fill="rgba(90, 240, 193, 0.25)" stroke="#5AF0C1" stroke-width="1.5"/>
  </g>


  <g transform="translate(100, 0)">
    <rect x="0" y="140" width="190" height="36" rx="18" fill="rgba(90, 240, 193, 0.1)" stroke="rgba(90, 240, 193, 0.3)" stroke-width="1.5"/>
    <circle cx="18" cy="158" r="4" fill="#5AF0C1" filter="url(#glowSubtle)"/>
    <text x="32" y="163" fill="#5AF0C1" font-family="system-ui, -apple-system, sans-serif" font-size="13" font-weight="700" letter-spacing="2">MULTIPLAYER ARENA</text>

    <text x="4" y="274" fill="rgba(255, 42, 109, 0.4)" font-family="system-ui, -apple-system, sans-serif" font-size="88" font-weight="900" font-style="italic" letter-spacing="-1" filter="url(#glowSubtle)">CRASH CLUB</text>
    <text x="0" y="270" fill="url(#textGrad)" font-family="system-ui, -apple-system, sans-serif" font-size="88" font-weight="900" font-style="italic" letter-spacing="-1">CRASH CLUB</text>

    <text x="0" y="330" fill="#8A98A5" font-family="system-ui, -apple-system, sans-serif" font-size="22" font-weight="400">A 3D browser driving game for local chaos,</text>
    <text x="0" y="365" fill="#8A98A5" font-family="system-ui, -apple-system, sans-serif" font-size="22" font-weight="400">boost grabs, and Wi-Fi multiplayer flexes</text>
    <text x="0" y="400" fill="#8A98A5" font-family="system-ui, -apple-system, sans-serif" font-size="22" font-weight="400">with your friends.</text>

    <rect x="0" y="450" width="220" height="56" rx="14" fill="#5AF0C1"/>
    <text x="110" y="484" fill="#070A12" font-family="system-ui, -apple-system, sans-serif" font-size="18" font-weight="700" text-anchor="middle">Three.js + WS</text>

    <rect x="240" y="450" width="180" height="56" rx="14" fill="rgba(255,255,255,0.03)" stroke="rgba(255,255,255,0.15)" stroke-width="2"/>
    <text x="330" y="484" fill="#FFFFFF" font-family="system-ui, -apple-system, sans-serif" font-size="18" font-weight="700" text-anchor="middle">Playable V1</text>

    <g transform="translate(0, 550)">
      <path d="M 8 10 L 2 16 L 8 22 M 16 10 L 22 16 L 16 22 M 14 6 L 10 26" stroke="#607080" stroke-width="2" fill="none" stroke-linecap="round" stroke-linejoin="round"/>
      <text x="36" y="21" fill="#607080" font-family="system-ui, -apple-system, sans-serif" font-size="16" font-weight="500">flowzygames / crash-club</text>
    </g>
  </g>
</svg>
