<svg width="960" height="540" viewBox="0 0 960 540" xmlns="http://www.w3.org/2000/svg">
  <defs>
    <radialGradient id="bg" cx="62%" cy="40%" r="70%">
      <stop stop-color="#1f3856"/>
      <stop offset="1" stop-color="#070a12"/>
    </radialGradient>
  </defs>
  <rect width="960" height="540" rx="38" fill="url(#bg)"/>
  <rect x="24" y="24" width="912" height="492" rx="30" fill="none" stroke="#5af0c2" stroke-opacity=".28" stroke-width="3"/>
  <text x="60" y="92" fill="#5af0c2" font-family="Trebuchet MS, Segoe UI, sans-serif" font-size="18" font-weight="900" letter-spacing="5">VERSION 1.0</text>
  <text x="56" y="186" fill="#ffffff" font-family="Trebuchet MS, Segoe UI, sans-serif" font-size="82" font-weight="900" letter-spacing="-4">PLAYABLE RELEASE</text>
  <text x="60" y="236" fill="#a4b4c7" font-family="Trebuchet MS, Segoe UI, sans-serif" font-size="26">Bot-filled rooms. Round wins. Radar. Touch controls. Powerups.</text>
  <g transform="translate(62 318)">
    <rect width="160" height="54" rx="16" fill="#5af0c2"/>
    <text x="80" y="35" text-anchor="middle" fill="#07111d" font-family="Trebuchet MS, Segoe UI, sans-serif" font-size="19" font-weight="900">READY</text>
    <rect x="178" width="190" height="54" rx="16" fill="rgba(255,255,255,.08)" stroke="rgba(255,255,255,.16)"/>
    <text x="273" y="35" text-anchor="middle" fill="#ffffff" font-family="Trebuchet MS, Segoe UI, sans-serif" font-size="19" font-weight="900">MULTIPLAYER</text>
  </g>
  <g transform="translate(680 250) rotate(16)">
    <path d="M0 32-160 32" stroke="#ffcf6b" stroke-width="10" stroke-linecap="round" opacity=".7"/>
    <path d="M18 12 58 0l98 18 24 28v28l-24 28-98 18-40-12Z" fill="#0b1220" stroke="#ffcf6b" stroke-width="5"/>
    <circle cx="56" cy="122" r="16" fill="#05070d" stroke="#5af0c2" stroke-width="5"/>
    <circle cx="150" cy="122" r="16" fill="#05070d" stroke="#5af0c2" stroke-width="5"/>
  </g>
</svg>
