<svg xmlns="http://www.w3.org/2000/svg" width="1200" height="520" viewBox="0 0 1200 520" role="img" aria-label="Crash Club Game Rules"><rect width="1200" height="520" rx="34" fill="#08111d"/><circle cx="920" cy="150" r="120" fill="#ff4f8b" opacity=".24"/><circle cx="285" cy="385" r="150" fill="#7eb8ff" opacity=".18"/><path d="M80 390 C270 300 430 450 620 350 S950 260 1120 360" fill="none" stroke="#263a4b" stroke-width="70" stroke-linecap="round"/><path d="M85 390 C270 300 430 450 620 350 S950 260 1120 360" fill="none" stroke="#ffcf6b" stroke-width="8" stroke-dasharray="42 28"/><circle cx="945" cy="245" r="52" fill="none" stroke="#7eb8ff" stroke-width="14"/><rect x="725" y="238" width="180" height="78" rx="22" fill="#ff4f8b"/><rect x="770" y="203" width="92" height="55" rx="16" fill="#ff4f8b" opacity=".85"/><circle cx="765" cy="326" r="25" fill="#050b12"/><circle cx="870" cy="326" r="25" fill="#050b12"/><text x="90" y="120" fill="#5af0c1" font-family="Trebuchet MS,Arial" font-size="26" font-weight="800" letter-spacing="7">CRASH CLUB</text><text x="90" y="220" fill="#f8fbff" font-family="Trebuchet MS,Arial" font-size="82" font-weight="900">Game Rules</text><text x="92" y="285" fill="#b9c8d9" font-family="Trebuchet MS,Arial" font-size="30" font-weight="700">Three minute rounds. Score from the ring, pickups, hits, wrecks, and survival.</text></svg>